<?xml version="1.0" encoding="UTF-8"?>
<svg xmlns="http://www.w3.org/2000/svg" xml:space="preserve" width="1920px" height="1080px" version="1.1" viewBox="0 0 1920 1080" xmlns:xlink="http://www.w3.org/1999/xlink">
 <defs>
  <linearGradient id="id0" gradientUnits="userSpaceOnUse" x1="1378" y1="1080" x2="1591" y2="998">
   <stop offset="0" style="stop-color:#43bdb0"/>
   <stop offset="1" style="stop-color:#42beb4"/>
  </linearGradient>
  <linearGradient id="id1" gradientUnits="userSpaceOnUse" x1="1795" y1="130" x2="1920" y2="37">
   <stop offset="0" style="stop-color:#76C3D1"/>
   <stop offset="1" style="stop-color:#75C0D3"/>
  </linearGradient>
  <linearGradient id="id2" gradientUnits="userSpaceOnUse" x1="961" y1="8" x2="961" y2="136">
   <stop offset="0" style="stop-color:#7BBFD4"/>
   <stop offset="1" style="stop-color:#78C3D2"/>
  </linearGradient>
  <linearGradient id="id3" gradientUnits="userSpaceOnUse" x1="1810" y1="692" x2="1758" y2="919">
   <stop offset="0" style="stop-color:#4CC3BF"/>
   <stop offset="1" style="stop-color:#4DC6B7"/>
  </linearGradient>
  <linearGradient id="id4" gradientUnits="userSpaceOnUse" x1="1788" y1="464" x2="1920" y2="689">
   <stop offset="0" style="stop-color:#59C1C8"/>
   <stop offset="1" style="stop-color:#59C8C2"/>
  </linearGradient>
  <linearGradient id="id5" gradientUnits="userSpaceOnUse" x1="1788" y1="464" x2="1701" y2="692">
   <stop offset="0" style="stop-color:#57BFC5"/>
   <stop offset="1" style="stop-color:#51C6C0"/>
  </linearGradient>
  <linearGradient id="id6" gradientUnits="userSpaceOnUse" x1="858" y1="122" x2="858" y2="8">
   <stop offset="0" style="stop-color:#7BC0D0"/>
   <stop offset="1" style="stop-color:#7CBDD3"/>
  </linearGradient>
  <linearGradient id="id7" gradientUnits="userSpaceOnUse" x1="1166" y1="634" x2="1110" y2="974">
   <stop offset="0" style="stop-color:#4DBEBC"/>
   <stop offset="1" style="stop-color:#4BC1B0"/>
  </linearGradient>
  <linearGradient id="id8" gradientUnits="userSpaceOnUse" x1="845" y1="357" x2="845" y2="696">
   <stop offset="0" style="stop-color:#5DBACC"/>
   <stop offset="1" style="stop-color:#5CC4C0"/>
  </linearGradient>
  <linearGradient id="id9" gradientUnits="userSpaceOnUse" x1="408" y1="320" x2="408" y2="535">
   <stop offset="0" style="stop-color:#63BCC9"/>
   <stop offset="1" style="stop-color:#5FC3C3"/>
  </linearGradient>
  <linearGradient id="id10" gradientUnits="userSpaceOnUse" x1="247" y1="919" x2="252" y2="1080">
   <stop offset="0" style="stop-color:#44C0B6"/>
   <stop offset="1" style="stop-color:#43C1B3"/>
  </linearGradient>
  <linearGradient id="id11" gradientUnits="userSpaceOnUse" x1="1677" y1="8" x2="1677" y2="130">
   <stop offset="0" style="stop-color:#7BBFD4"/>
   <stop offset="1" style="stop-color:#77C0D1"/>
  </linearGradient>
  <linearGradient id="id12" gradientUnits="userSpaceOnUse" x1="1266" y1="8" x2="1238" y2="119">
   <stop offset="0" style="stop-color:#7BBFD4"/>
   <stop offset="1" style="stop-color:#76BECF"/>
  </linearGradient>
  <linearGradient id="id13" gradientUnits="userSpaceOnUse" x1="1648" y1="919" x2="1701" y2="692">
   <stop offset="0" style="stop-color:#4AC3B4"/>
   <stop offset="1" style="stop-color:#46BDB9"/>
  </linearGradient>
  <linearGradient id="id14" gradientUnits="userSpaceOnUse" x1="217" y1="699" x2="156" y2="480">
   <stop offset="0" style="stop-color:#56C5BF"/>
   <stop offset="1" style="stop-color:#58BFC3"/>
  </linearGradient>
  <linearGradient id="id15" gradientUnits="userSpaceOnUse" x1="1166" y1="634" x2="1279" y2="351">
   <stop offset="0" style="stop-color:#5EC5C2"/>
   <stop offset="1" style="stop-color:#5AB9CB"/>
  </linearGradient>
  <linearGradient id="id16" gradientUnits="userSpaceOnUse" x1="844" y1="366" x2="844" y2="122">
   <stop offset="0" style="stop-color:#68C0CB"/>
   <stop offset="1" style="stop-color:#6EBBCE"/>
  </linearGradient>
  <linearGradient id="id17" gradientUnits="userSpaceOnUse" x1="1110" y1="634" x2="1110" y2="974">
   <stop offset="0" style="stop-color:#4FBCBC"/>
   <stop offset="1" style="stop-color:#4CC1AF"/>
  </linearGradient>
  <linearGradient id="id18" gradientUnits="userSpaceOnUse" x1="140" y1="156" x2="536" y2="140">
   <stop offset="0" style="stop-color:#6DBDCF"/>
   <stop offset="1" style="stop-color:#6FBBD2"/>
  </linearGradient>
  <linearGradient id="id19" gradientUnits="userSpaceOnUse" x1="577" y1="809" x2="536" y2="1080">
   <stop offset="0" style="stop-color:#48BDB5"/>
   <stop offset="1" style="stop-color:#46C0B0"/>
  </linearGradient>
  <linearGradient id="id20" gradientUnits="userSpaceOnUse" x1="946" y1="802" x2="934" y2="1029">
   <stop offset="0" style="stop-color:#4BB9B6"/>
   <stop offset="1" style="stop-color:#45B9AC"/>
  </linearGradient>
  <linearGradient id="id21" gradientUnits="userSpaceOnUse" x1="845" y1="3567" x2="844" y2="119">
   <stop offset="0" style="stop-color:#6FC4CB"/>
   <stop offset="1" style="stop-color:#74BFD4"/>
  </linearGradient>
  <linearGradient id="id22" gradientUnits="userSpaceOnUse" x1="1758" y1="919" x2="1785" y2="1080">
   <stop offset="0" style="stop-color:#41bdb3"/>
   <stop offset="1" style="stop-color:#41c1b2"/>
  </linearGradient>
  <linearGradient id="id23" gradientUnits="userSpaceOnUse" x1="1758" y1="919" x2="1920" y2="919">
   <stop offset="0" style="stop-color:#48C6B6"/>
   <stop offset="1" style="stop-color:#47C5B7"/>
  </linearGradient>
  <linearGradient id="id24" gradientUnits="userSpaceOnUse" x1="0" y1="645" x2="156" y2="480">
   <stop offset="0" style="stop-color:#54C5BF"/>
   <stop offset="1" style="stop-color:#54C1C2"/>
  </linearGradient>
  <linearGradient id="id25" gradientUnits="userSpaceOnUse" x1="1279" y1="351" x2="1166" y2="634">
   <stop offset="0" style="stop-color:#5CBBC9"/>
   <stop offset="1" style="stop-color:#5AC3BF"/>
  </linearGradient>
  <linearGradient id="id26" gradientUnits="userSpaceOnUse" x1="1166" y1="634" x2="1319" y2="809">
   <stop offset="0" style="stop-color:#52BEBE"/>
   <stop offset="1" style="stop-color:#50C3B9"/>
  </linearGradient>
  <linearGradient id="id27" gradientUnits="userSpaceOnUse" x1="1649" y1="919" x2="1646" y2="1080">
   <stop offset="0" style="stop-color:#42beb4"/>
   <stop offset="1" style="stop-color:#43c1b3"/>
  </linearGradient>
  <linearGradient id="id28" gradientUnits="userSpaceOnUse" x1="1315" y1="8" x2="1567" y2="110">
   <stop offset="0" style="stop-color:#75BCD0"/>
   <stop offset="1" style="stop-color:#7BBFD4"/>
  </linearGradient>
  <linearGradient id="id29" gradientUnits="userSpaceOnUse" x1="0" y1="1080" x2="112" y2="919">
   <stop offset="0" style="stop-color:#43C3B4"/>
   <stop offset="1" style="stop-color:#43C1B6"/>
  </linearGradient>
  <linearGradient id="id30" gradientUnits="userSpaceOnUse" x1="713" y1="1080" x2="781" y2="974">
   <stop offset="0" style="stop-color:#43BAAE"/>
   <stop offset="1" style="stop-color:#45BBAF"/>
  </linearGradient>
  <linearGradient id="id31" gradientUnits="userSpaceOnUse" x1="0" y1="309" x2="152" y2="156">
   <stop offset="0" style="stop-color:#65C2C9"/>
   <stop offset="1" style="stop-color:#62BFCC"/>
  </linearGradient>
  <linearGradient id="id32" gradientUnits="userSpaceOnUse" x1="112" y1="919" x2="126" y2="1080">
   <stop offset="0" style="stop-color:#40BFB4"/>
   <stop offset="1" style="stop-color:#41C1B3"/>
  </linearGradient>
  <linearGradient id="id33" gradientUnits="userSpaceOnUse" x1="1795" y1="130" x2="1920" y2="466">
   <stop offset="0" style="stop-color:#67BCD1"/>
   <stop offset="1" style="stop-color:#5BC2C7"/>
  </linearGradient>
  <linearGradient id="id34" gradientUnits="userSpaceOnUse" x1="1505" y1="295" x2="1567" y2="110">
   <stop offset="0" style="stop-color:#6FBFCD"/>
   <stop offset="1" style="stop-color:#70BBD2"/>
  </linearGradient>
  <linearGradient id="id35" gradientUnits="userSpaceOnUse" x1="1077" y1="8" x2="1077" y2="119">
   <stop offset="0" style="stop-color:#7BBFD4"/>
   <stop offset="1" style="stop-color:#7CBFD0"/>
  </linearGradient>
  <linearGradient id="id36" gradientUnits="userSpaceOnUse" x1="408" y1="535" x2="689" y2="521">
   <stop offset="0" style="stop-color:#59C1C2"/>
   <stop offset="1" style="stop-color:#5BBDC6"/>
  </linearGradient>
  <linearGradient id="id37" gradientUnits="userSpaceOnUse" x1="1758" y1="919" x2="1919" y2="1080">
   <stop offset="0" style="stop-color:#43c1b5"/>
   <stop offset="1" style="stop-color:#42c2b3"/>
  </linearGradient>
  <linearGradient id="id38" gradientUnits="userSpaceOnUse" x1="140" y1="156" x2="156" y2="480">
   <stop offset="0" style="stop-color:#67BCD0"/>
   <stop offset="1" style="stop-color:#67C0C6"/>
  </linearGradient>
  <linearGradient id="id39" gradientUnits="userSpaceOnUse" x1="1482" y1="523" x2="1701" y2="692">
   <stop offset="0" style="stop-color:#57BFC0"/>
   <stop offset="1" style="stop-color:#56C5BF"/>
  </linearGradient>
  <linearGradient id="id40" gradientUnits="userSpaceOnUse" x1="659" y1="8" x2="690" y2="139">
   <stop offset="0" style="stop-color:#75BBD5"/>
   <stop offset="1" style="stop-color:#75BECF"/>
  </linearGradient>
  <linearGradient id="id41" gradientUnits="userSpaceOnUse" x1="1795" y1="130" x2="1920" y2="377">
   <stop offset="0" style="stop-color:#6DBFD5"/>
   <stop offset="1" style="stop-color:#66C1CA"/>
  </linearGradient>
  <linearGradient id="id42" gradientUnits="userSpaceOnUse" x1="581" y1="235" x2="411" y2="320">
   <stop offset="0" style="stop-color:#69B9D0"/>
   <stop offset="1" style="stop-color:#6ABEC8"/>
  </linearGradient>
  <linearGradient id="id43" gradientUnits="userSpaceOnUse" x1="217" y1="699" x2="108" y2="919">
   <stop offset="0" style="stop-color:#4CC3BF"/>
   <stop offset="1" style="stop-color:#4AC6B6"/>
  </linearGradient>
  <linearGradient id="id44" gradientUnits="userSpaceOnUse" x1="0" y1="8" x2="140" y2="156">
   <stop offset="0" style="stop-color:#7AC1D5"/>
   <stop offset="1" style="stop-color:#75C2D2"/>
  </linearGradient>
  <linearGradient id="id45" gradientUnits="userSpaceOnUse" x1="0" y1="309" x2="140" y2="156">
   <stop offset="0" style="stop-color:#6CC2CF"/>
   <stop offset="1" style="stop-color:#6CC1D6"/>
  </linearGradient>
  <linearGradient id="id46" gradientUnits="userSpaceOnUse" x1="1077" y1="119" x2="1279" y2="351">
   <stop offset="0" style="stop-color:#6FBAD1"/>
   <stop offset="1" style="stop-color:#6EC2CB"/>
  </linearGradient>
  <linearGradient id="id47" gradientUnits="userSpaceOnUse" x1="1279" y1="351" x2="1399" y2="119">
   <stop offset="0" style="stop-color:#6ABFC9"/>
   <stop offset="1" style="stop-color:#6ABAD1"/>
  </linearGradient>
  <linearGradient id="id48" gradientUnits="userSpaceOnUse" x1="1365" y1="1080" x2="1319" y2="809">
   <stop offset="0" style="stop-color:#47c0b1"/>
   <stop offset="1" style="stop-color:#48bdb6"/>
  </linearGradient>
  <linearGradient id="id49" gradientUnits="userSpaceOnUse" x1="0" y1="0" x2="0" y2="1080">
   <stop offset="0" style="stop-color:#7bbfd4"/>
   <stop offset="1" style="stop-color:#41c1b2"/>
  </linearGradient>
  <linearGradient id="id50" gradientUnits="userSpaceOnUse" x1="1795" y1="130" x2="1801" y2="8">
   <stop offset="0" style="stop-color:#78C1CF"/>
   <stop offset="1" style="stop-color:#7BBFD4"/>
  </linearGradient>
  <linearGradient id="id51" gradientUnits="userSpaceOnUse" x1="0" y1="768" x2="112" y2="919">
   <stop offset="0" style="stop-color:#47C3B9"/>
   <stop offset="1" style="stop-color:#4BC5B6"/>
  </linearGradient>
  <linearGradient id="id52" gradientUnits="userSpaceOnUse" x1="156" y1="480" x2="411" y2="320">
   <stop offset="0" style="stop-color:#5EBEC5"/>
   <stop offset="1" style="stop-color:#5FBCCE"/>
  </linearGradient>
  <linearGradient id="id53" gradientUnits="userSpaceOnUse" x1="0" y1="645" x2="156" y2="480">
   <stop offset="0" style="stop-color:#5AC4C4"/>
   <stop offset="1" style="stop-color:#5BC2C9"/>
  </linearGradient>
  <linearGradient id="id54" gradientUnits="userSpaceOnUse" x1="1482" y1="523" x2="1539" y2="919">
   <stop offset="0" style="stop-color:#4FBCBF"/>
   <stop offset="1" style="stop-color:#4DC6B5"/>
  </linearGradient>
  <linearGradient id="id55" gradientUnits="userSpaceOnUse" x1="416" y1="8" x2="286" y2="42">
   <stop offset="0" style="stop-color:#79BDD2"/>
   <stop offset="1" style="stop-color:#75BCD0"/>
  </linearGradient>
  <linearGradient id="id56" gradientUnits="userSpaceOnUse" x1="958" y1="470" x2="958" y2="291">
   <stop offset="0" style="stop-color:#6AC5CA"/>
   <stop offset="1" style="stop-color:#6BBECC"/>
  </linearGradient>
  <linearGradient id="id57" gradientUnits="userSpaceOnUse" x1="1110" y1="974" x2="1110" y2="1080">
   <stop offset="0" style="stop-color:#44BAAE"/>
   <stop offset="1" style="stop-color:#45BBAF"/>
  </linearGradient>
  <linearGradient id="id58" gradientUnits="userSpaceOnUse" x1="658" y1="366" x2="845" y2="357">
   <stop offset="0" style="stop-color:#5BBACC"/>
   <stop offset="1" style="stop-color:#5EBAC9"/>
  </linearGradient>
  <linearGradient id="id59" gradientUnits="userSpaceOnUse" x1="1539" y1="919" x2="1482" y2="523">
   <stop offset="0" style="stop-color:#4DC6B5"/>
   <stop offset="1" style="stop-color:#4BB6BF"/>
  </linearGradient>
  <linearGradient id="id60" gradientUnits="userSpaceOnUse" x1="781" y1="974" x2="737" y2="696">
   <stop offset="0" style="stop-color:#4AC1B3"/>
   <stop offset="1" style="stop-color:#4CBBBB"/>
  </linearGradient>
  <linearGradient id="id61" gradientUnits="userSpaceOnUse" x1="381" y1="919" x2="252" y2="1080">
   <stop offset="0" style="stop-color:#44BDB3"/>
   <stop offset="1" style="stop-color:#41BDB3"/>
  </linearGradient>
  <linearGradient id="id62" gradientUnits="userSpaceOnUse" x1="1482" y1="523" x2="1505" y2="295">
   <stop offset="0" style="stop-color:#5FC1C2"/>
   <stop offset="1" style="stop-color:#60BCCB"/>
  </linearGradient>
  <linearGradient id="id63" gradientUnits="userSpaceOnUse" x1="207" y1="8" x2="249" y2="156">
   <stop offset="0" style="stop-color:#77BFD5"/>
   <stop offset="1" style="stop-color:#76BFD0"/>
  </linearGradient>
  <linearGradient id="id64" gradientUnits="userSpaceOnUse" x1="951" y1="747" x2="951" y2="521">
   <stop offset="0" style="stop-color:#59C4BE"/>
   <stop offset="1" style="stop-color:#56BDC2"/>
  </linearGradient>
  <linearGradient id="id65" gradientUnits="userSpaceOnUse" x1="573" y1="809" x2="737" y2="696">
   <stop offset="0" style="stop-color:#53C2BC"/>
   <stop offset="1" style="stop-color:#52BEBE"/>
  </linearGradient>
  <linearGradient id="id66" gradientUnits="userSpaceOnUse" x1="934" y1="1029" x2="825" y2="1080">
   <stop offset="0" style="stop-color:#45BBAF"/>
   <stop offset="1" style="stop-color:#43BAAE"/>
  </linearGradient>
  <linearGradient id="id67" gradientUnits="userSpaceOnUse" x1="1294" y1="8" x2="1399" y2="119">
   <stop offset="0" style="stop-color:#7BBFD4"/>
   <stop offset="1" style="stop-color:#75BCCE"/>
  </linearGradient>
  <linearGradient id="id68" gradientUnits="userSpaceOnUse" x1="217" y1="699" x2="247" y2="919">
   <stop offset="0" style="stop-color:#47BDBD"/>
   <stop offset="1" style="stop-color:#45C0B6"/>
  </linearGradient>
  <linearGradient id="id69" gradientUnits="userSpaceOnUse" x1="381" y1="919" x2="408" y2="535">
   <stop offset="0" style="stop-color:#4BC4B5"/>
   <stop offset="1" style="stop-color:#50BDC3"/>
  </linearGradient>
  <linearGradient id="id70" gradientUnits="userSpaceOnUse" x1="408" y1="535" x2="381" y2="919">
   <stop offset="0" style="stop-color:#4CB9C0"/>
   <stop offset="1" style="stop-color:#48C0B4"/>
  </linearGradient>
  <linearGradient id="id71" gradientUnits="userSpaceOnUse" x1="416" y1="8" x2="536" y2="139">
   <stop offset="0" style="stop-color:#79BBD1"/>
   <stop offset="1" style="stop-color:#78BCCF"/>
  </linearGradient>
 </defs>
 <g>
  <rect style="fill:url(#id49)" x="0" y="0" width="1920" height="1080"/>
  <path style="fill:url(#id37)" d="M1758.36 919.02l160.6 160.98 1.13 0 0 -160.98 -161.73 0z"/>
  <path style="fill:url(#id22)" d="M1758.36 919.02l-107.32 160.98 267.92 0 -160.6 -160.98z"/>
  <path style="fill:url(#id27)" d="M1539.13 919.02l106.95 160.98 4.96 0 107.32 -160.98 -219.23 0z"/>
  <path style="fill:url(#id0)" d="M1539.13 919.02l-160.98 160.98 267.93 0 -106.95 -160.98z"/>
  <path style="fill:url(#id48)" d="M1319.2 809.43l-208.97 164.76 254.7 105.81 13.22 0 160.98 -160.98 -219.93 -109.59z"/>
  <path style="fill:url(#id57)" d="M1110.23 974.19l-175.72 54.8 -30.23 51.01 460.65 0 -254.7 -105.81z"/>
  <path style="fill:url(#id20)" d="M945.82 802.53l-164.35 171.66 153.04 54.8 175.72 -54.8 -164.41 -171.66z"/>
  <path style="fill:url(#id66)" d="M934.51 1028.99l-109.58 51.01 79.35 0 30.23 -51.01z"/>
  <path style="fill:url(#id30)" d="M781.47 974.19l-233.16 105.81 276.62 0 109.58 -51.01 -153.04 -54.8z"/>
  <path style="fill:url(#id19)" d="M577.03 809.43l-195.74 109.97 155.31 160.6 11.71 0 233.16 -105.81 -204.44 -164.76z"/>
  <path style="fill:url(#id61)" d="M381.29 919.4l-128.48 160.6 283.79 0 -155.31 -160.6z"/>
  <path style="fill:url(#id10)" d="M112.61 919.02l134.15 160.98 6.05 0 128.48 -160.6 -268.68 -0.38z"/>
  <path style="fill:url(#id32)" d="M112.61 919.02l-107.32 160.98 241.47 0 -134.15 -160.98z"/>
  <path style="fill:url(#id29)" d="M0 919.02l0 160.22 0.38 0.76 4.91 0 107.32 -160.98 -112.61 0z"/>
  <path style="fill:url(#id23)" d="M1920.09 696.08l-161.73 222.94 161.73 0 0 -222.94z"/>
  <path style="fill:url(#id3)" d="M1701.45 692.57l56.91 226.45 161.73 -222.94 0 -3.51 -218.64 0z"/>
  <path style="fill:url(#id4)" d="M1788.62 464.77l131.47 224.29 0 -222.95 -131.47 -1.34z"/>
  <path style="fill:url(#id5)" d="M1788.62 464.77l-87.17 227.8 218.64 0 0 -3.51 -131.47 -224.29z"/>
  <path style="fill:url(#id13)" d="M1701.45 692.57l-162.32 226.45 219.23 0 -56.91 -226.45z"/>
  <path style="fill:url(#id39)" d="M1482.62 523.02l306 -58.25 -87.17 227.8 -218.83 -169.55z"/>
  <path style="fill:url(#id54)" d="M1701.45 692.57l-218.83 -169.55 56.51 396 162.32 -226.45z"/>
  <path style="fill:url(#id59)" d="M1482.62 523.02l-163.42 286.41 219.93 109.59 -56.51 -396z"/>
  <path style="fill:url(#id26)" d="M1482.62 523.02l-316.45 111.69 153.03 174.72 163.42 -286.41z"/>
  <path style="fill:url(#id7)" d="M1166.17 634.71l153.03 174.72 -208.97 164.76 55.94 -339.48z"/>
  <path style="fill:url(#id17)" d="M1110.23 974.19l55.94 -339.48 -215.15 113.03 -213.79 -51.34 44.24 277.79 164.35 -171.66 164.41 171.66z"/>
  <path style="fill:url(#id64)" d="M1166.17 634.71l-215.15 -113.03 -213.79 174.72 213.79 51.34 215.15 -113.03z"/>
  <path style="fill:url(#id60)" d="M577.03 809.43l160.2 -113.03 44.24 277.79 -204.44 -164.76z"/>
  <path style="fill:url(#id65)" d="M577.03 809.43l160.2 -113.03 -328.36 -160.93 168.16 273.96z"/>
  <path style="fill:url(#id70)" d="M381.29 919.4l195.74 -109.97 -168.16 -273.96 -27.58 383.93z"/>
  <path style="fill:url(#id69)" d="M216.91 699.47l191.96 -164 -27.58 383.93 -164.38 -219.93z"/>
  <path style="fill:url(#id68)" d="M112.61 919.02l104.3 -219.55 164.38 219.93 -268.68 -0.38z"/>
  <path style="fill:url(#id43)" d="M0 699.85l0 68.77 112.61 150.4 104.3 -219.55 -216.91 0.38z"/>
  <path style="fill:url(#id51)" d="M0 768.62l0 150.4 112.61 0 -112.61 -150.4z"/>
  <path style="fill:url(#id62)" d="M1279.2 351.74l226.45 -56.52 282.97 169.55 -306 58.25 -203.42 -171.28z"/>
  <path style="fill:url(#id25)" d="M1279.2 351.74l203.42 171.28 -316.45 111.69 113.03 -282.97z"/>
  <path style="fill:url(#id15)" d="M1279.2 351.74l-113.03 282.97 -94.92 -277.79 207.95 -5.18z"/>
  <path style="fill:url(#id8)" d="M845.19 356.92l113.03 113.03 113.03 -113.03 94.92 277.79 -215.15 -113.03 -213.79 174.72 107.96 -339.48z"/>
  <path style="fill:url(#id56)" d="M845.19 356.92l113.03 -65.25 113.03 65.25 -113.03 113.03 -113.03 -113.03z"/>
  <path style="fill:url(#id58)" d="M658.32 365.92l186.87 -9 -107.96 339.48 -78.91 -330.48z"/>
  <path style="fill:url(#id36)" d="M658.32 365.92l78.91 330.48 -328.36 -160.93 249.45 -169.55z"/>
  <path style="fill:url(#id9)" d="M411.47 320.54l246.85 45.38 -249.45 169.55 2.6 -214.93z"/>
  <path style="fill:url(#id52)" d="M156.45 480.67l255.02 -160.13 -2.6 214.93 -252.42 -54.8z"/>
  <path style="fill:url(#id14)" d="M408.87 535.47l-252.42 -54.8 60.46 218.8 191.96 -164z"/>
  <path style="fill:url(#id24)" d="M156.45 480.67l-156.45 164.38 0 54.8 216.91 -0.38 -60.46 -218.8z"/>
  <path style="fill:url(#id53)" d="M0 447.8l0 197.25 156.45 -164.38 -156.45 -32.87z"/>
  <path style="fill:url(#id41)" d="M1795.05 130.85l125.04 246.4 0 -242.44 -125.04 -3.96z"/>
  <path style="fill:url(#id33)" d="M1795.05 130.85l-289.4 164.37 282.97 169.55 131.47 1.34 0 -88.86 -125.04 -246.4z"/>
  <path style="fill:url(#id34)" d="M1795.05 130.85l-227.94 -20.16 -168.06 8.86 106.6 175.67 289.4 -164.37z"/>
  <path style="fill:url(#id47)" d="M1399.05 119.55l106.6 175.67 -226.45 56.52 119.85 -232.19z"/>
  <path style="fill:url(#id46)" d="M1077.1 119.16l321.95 0.39 -119.85 232.19 -207.95 5.18 5.85 -237.76z"/>
  <path style="fill:url(#id21)" d="M845.19 356.92l-0.95 -234.22 113.98 13.61 118.88 -17.15 -5.85 237.76 -113.03 -65.25 -113.03 65.25z"/>
  <path style="fill:url(#id16)" d="M536.16 139.68l308.08 -16.98 0.95 234.22 -186.87 9 -122.16 -226.24z"/>
  <path style="fill:url(#id42)" d="M658.32 365.92l-122.16 -226.24 -124.69 180.86 246.85 45.38z"/>
  <path style="fill:url(#id18)" d="M140.2 156.44l218.48 -62.9 177.48 46.14 -124.69 180.86 -271.27 -164.1z"/>
  <path style="fill:url(#id38)" d="M411.47 320.54l-271.27 -164.1 16.25 324.23 255.02 -160.13z"/>
  <path style="fill:url(#id31)" d="M140.2 156.44l-140.2 152.67 0 138.69 156.45 32.87 -16.25 -324.23z"/>
  <path style="fill:url(#id45)" d="M140.2 156.44l-140.2 3.4 0 149.27 140.2 -152.67z"/>
  <path style="fill:url(#id1)" d="M1920.09 37.37l-125.04 93.48 125.04 3.96 0 -97.44z"/>
  <path style="fill:url(#id50)" d="M1682.09 0l112.96 130.85 125.04 -93.48 -0.09 -37.37 -237.91 0z"/>
  <path style="fill:url(#id11)" d="M1677.8 0l-110.69 110.69 227.94 20.16 -112.96 -130.85 -4.29 0z"/>
  <path style="fill:url(#id28)" d="M1315.32 0l251.79 110.69 110.69 -110.69 -362.48 0z"/>
  <path style="fill:url(#id67)" d="M1294.27 0l104.78 119.55 168.06 -8.86 -251.79 -110.69 -21.05 0z"/>
  <path style="fill:url(#id12)" d="M1266.44 0l-189.34 119.16 321.95 0.39 -104.78 -119.55 -27.83 0z"/>
  <path style="fill:url(#id35)" d="M1079.43 0l-2.33 119.16 189.34 -119.16 -187.01 0z"/>
  <path style="fill:url(#id2)" d="M858.04 0l-13.8 122.7 113.98 13.61 118.88 -17.15 2.33 -119.16 -221.39 0z"/>
  <path style="fill:url(#id6)" d="M692.78 0l151.46 122.7 13.8 -122.7 -165.26 0z"/>
  <path style="fill:url(#id40)" d="M628.39 0l-92.23 139.68 308.08 -16.98 -151.46 -122.7 -64.39 0z"/>
  <path style="fill:url(#id71)" d="M415.97 0l-57.29 93.54 177.48 46.14 92.23 -139.68 -212.42 0z"/>
  <path style="fill:url(#id55)" d="M223.04 0l135.64 93.54 57.29 -93.54 -192.93 0z"/>
  <path style="fill:url(#id63)" d="M207.84 0l-67.64 156.44 218.48 -62.9 -135.64 -93.54 -15.2 0z"/>
  <path style="fill:url(#id44)" d="M0 0l0 159.84 140.2 -3.4 67.64 -156.44 -207.84 0z"/>
 </g>
</svg>
