<svg xmlns="http://www.w3.org/2000/svg" viewBox="0 0 100 40">
 <defs>
   <linearGradient id="id0" gradientUnits="userSpaceOnUse" x1="50.49" y1="0.65" x2="50.49" y2="18.89">
    <stop offset="0" stop-opacity="0.47" stop-color="white"/>
    <stop offset="1" stop-opacity="0.13" stop-color="white"/>
   </linearGradient>
 </defs>
 <path fill="currentColor" d="M90.82 33.9l3.88 0c0.54,0 1.01,-0.03 1.39,-0.09 0.39,-0.06 0.7,-0.16 0.95,-0.29 0.24,-0.13 0.43,-0.3 0.54,-0.52 0.12,-0.21 0.17,-0.48 0.17,-0.78 0,-0.56 -0.23,-0.97 -0.69,-1.24 -0.45,-0.26 -1.15,-0.4 -2.1,-0.4l-4.14 0 0 3.32zm9.18 5.28l-1.88 0 -1.23 -2.59c-0.11,-0.22 -0.25,-0.43 -0.44,-0.62 -0.19,-0.19 -0.4,-0.35 -0.65,-0.49 -0.24,-0.13 -0.51,-0.24 -0.81,-0.32 -0.3,-0.07 -0.62,-0.11 -0.96,-0.11l-3.21 0 0 4.13 -1.73 0 0 -9.67 5.8 0c0.35,0 0.68,0.01 1,0.02 0.31,0.01 0.61,0.04 0.9,0.08 0.29,0.04 0.56,0.11 0.82,0.19 0.25,0.09 0.5,0.2 0.73,0.35 0.2,0.12 0.38,0.26 0.52,0.43 0.15,0.15 0.28,0.32 0.38,0.5 0.1,0.18 0.18,0.36 0.23,0.55 0.05,0.2 0.08,0.39 0.08,0.59 0,0.33 -0.07,0.64 -0.21,0.93 -0.13,0.28 -0.33,0.53 -0.58,0.75 -0.25,0.22 -0.56,0.41 -0.93,0.56 -0.36,0.15 -0.77,0.26 -1.22,0.34 0.46,0.11 0.86,0.31 1.21,0.6 0.35,0.28 0.64,0.67 0.89,1.15l1.29 2.63zm-17.75 0l-9.77 0 0 -9.67 9.47 0 0 1.16 -7.73 0 0 2.93 7.23 0 0 1.15 -7.23 0 0 3.28 8.03 0 0 1.15zm-17.09 0l-1.77 0 -6.86 -7.62 0 7.62 -1.65 0 0 -9.67 1.79 0 6.84 7.64 0 -7.64 1.65 0 0 9.67zm-23.18 0.17c-0.94,0 -1.8,-0.12 -2.58,-0.36 -0.78,-0.24 -1.44,-0.58 -2,-1.02 -0.55,-0.43 -0.98,-0.96 -1.29,-1.58 -0.3,-0.61 -0.45,-1.3 -0.45,-2.05 0,-0.76 0.15,-1.45 0.45,-2.07 0.31,-0.61 0.73,-1.14 1.29,-1.57 0.55,-0.44 1.21,-0.77 1.98,-1 0.77,-0.23 1.61,-0.35 2.54,-0.35 0.77,0 1.5,0.07 2.16,0.22 0.67,0.15 1.26,0.35 1.76,0.62 0.5,0.27 0.91,0.6 1.22,0.98 0.31,0.38 0.49,0.81 0.55,1.28l-1.8 0c-0.03,-0.31 -0.15,-0.6 -0.34,-0.84 -0.19,-0.25 -0.46,-0.46 -0.79,-0.63 -0.34,-0.18 -0.74,-0.31 -1.2,-0.4 -0.45,-0.08 -0.97,-0.13 -1.54,-0.13 -0.66,0 -1.27,0.09 -1.82,0.26 -0.55,0.17 -1.03,0.42 -1.42,0.75 -0.4,0.34 -0.71,0.74 -0.92,1.22 -0.22,0.49 -0.33,1.04 -0.33,1.66 0,0.61 0.11,1.16 0.33,1.65 0.21,0.48 0.52,0.89 0.92,1.23 0.39,0.33 0.87,0.59 1.42,0.77 0.56,0.18 1.17,0.26 1.83,0.26 0.97,0 1.79,-0.11 2.48,-0.33 0.69,-0.23 1.27,-0.57 1.73,-1.04l0 -1.47 -3.44 0 0 -1.16 5.14 0 0 4.93 -1.25 0 -0.45 -1.01c-0.89,0.78 -2.28,1.18 -4.18,1.18zm-11.58 -0.17l-1.96 0 -1.51 -2.93 -5.48 0 -1.45 2.93 -1.82 0 5.01 -9.67 1.88 0 5.33 9.67zm-3.97 -3.96l-2.31 -4.48 -2.19 4.48 4.5 0zm-14.11 3.96l-1.67 0 0 -8.21 -3.72 8.21 -1.57 0 -3.71 -8.21 0 8.21 -1.65 0 0 -9.67 2.62 0 3.52 8.06 3.57 -8.06 2.61 0 0 9.67zm87.68 -32.75l-4.93 16.73 0 4.19 -6.25 0 0 -4.19 -4.77 -16.73 6.21 0c0.96,5.14 1.51,8.58 1.65,10.35 0.39,-2.79 1.01,-6.24 1.89,-10.35l6.2 0zm-22.71 9.31l0 -1.92c0,-1.36 -0.06,-2.23 -0.17,-2.63 -0.11,-0.39 -0.34,-0.59 -0.69,-0.59 -0.43,0 -0.7,0.17 -0.8,0.51 -0.1,0.33 -0.15,1.24 -0.15,2.71l0 1.92 1.81 0zm6.05 4.25l-7.86 0 0 5.68c0,0.71 0.02,1.27 0.07,1.68l-5.85 0c-0.18,-1.01 -0.27,-2.41 -0.27,-4.22l0 -7.65c0,-2.3 0.23,-4.1 0.7,-5.43 0.47,-1.32 1.24,-2.34 2.31,-3.04 1.08,-0.71 2.3,-1.06 3.7,-1.06 1.7,0 3.1,0.42 4.2,1.27 1.11,0.85 1.89,1.98 2.33,3.38 0.45,1.4 0.67,3.37 0.67,5.91l0 3.48zm-5.87 7.36c0.08,-0.5 0.13,-1.24 0.13,-2.2l0 -2.46 5.74 0 0 0.94c0,1.61 -0.08,2.85 -0.23,3.72l-5.64 0zm-9.94 -12.54l-5.34 0 0 -1.42c0,-1.22 -0.05,-1.98 -0.16,-2.3 -0.1,-0.33 -0.37,-0.49 -0.79,-0.49 -0.33,0 -0.59,0.15 -0.76,0.45 -0.17,0.29 -0.26,0.74 -0.26,1.33 0,0.8 0.05,1.4 0.13,1.77 0.09,0.38 0.34,0.79 0.77,1.23 0.42,0.45 1.29,1.11 2.6,1.96 1.76,1.14 2.9,2.2 3.45,3.21 0.55,0.99 0.82,2.45 0.82,4.36 0,0.91 -0.03,1.72 -0.11,2.44l-5.53 0c0.04,-0.29 0.06,-0.65 0.06,-1.08 0,-1.25 -0.11,-2.03 -0.33,-2.35 -0.23,-0.32 -1.4,-1.26 -3.52,-2.81 -1.77,-1.32 -2.86,-2.51 -3.25,-3.59 -0.39,-1.07 -0.58,-2.35 -0.58,-3.82 0,-2.1 0.21,-3.64 0.63,-4.64 0.42,-0.99 1.13,-1.76 2.13,-2.3 1.01,-0.54 2.17,-0.81 3.5,-0.81 1.32,0 2.44,0.22 3.36,0.66 0.93,0.44 1.63,1.02 2.13,1.75 0.49,0.73 0.79,1.4 0.9,2.02 0.1,0.62 0.15,1.59 0.15,2.91l0 1.52zm-12.52 12.54c-0.09,-0.76 -0.13,-1.64 -0.13,-2.62l0 -1.26 5.38 0 0 1.65c0,0.98 0.03,1.73 0.09,2.23l-5.34 0zm-1.48 -20.92l-2.46 10.46 2.1 10.46 -5.6 0 -1.02 -6.11 -0.01 6.11 -6.06 0 0 -26.7 6.05 0 0.02 13.46 1.9 -7.68 5.08 0zm-21.07 9.31l0 -1.92c0,-1.36 -0.06,-2.23 -0.17,-2.63 -0.11,-0.39 -0.34,-0.59 -0.69,-0.59 -0.43,0 -0.69,0.17 -0.8,0.51 -0.1,0.33 -0.15,1.24 -0.15,2.71l0 1.92 1.81 0zm6.05 4.25l-7.86 0 0 5.68c0,0.71 0.02,1.27 0.07,1.68l-5.85 0c-0.18,-1.01 -0.27,-2.41 -0.27,-4.22l0 -7.65c0,-2.3 0.24,-4.1 0.71,-5.43 0.47,-1.32 1.24,-2.34 2.31,-3.04 1.07,-0.71 2.3,-1.06 3.69,-1.06 1.7,0 3.1,0.42 4.21,1.27 1.1,0.85 1.88,1.98 2.33,3.38 0.44,1.4 0.66,3.37 0.66,5.91l0 3.48zm-5.87 7.36c0.09,-0.5 0.13,-1.24 0.13,-2.2l0 -2.46 5.74 0 0 0.94c0,1.61 -0.07,2.85 -0.23,3.72l-5.64 0zm-10.03 -26.7l0 26.7 -6.24 0 0 -26.7 6.24 0zm-14.1 20.59c-0.31,-3.63 -0.62,-8.12 -0.96,-13.48 -0.63,6.15 -1.02,10.64 -1.19,13.48l2.15 0zm3.35 -20.59l3.01 26.7 -6.17 0 -0.03 -0.44 -2.27 0 -0.03 0.44 -6.32 0 2.67 -26.7 9.14 0z"/>
<path fill="url(#id0)" d="M100 6.43l-3.45 11.71c-2.98,0.1 -6,0.19 -9.09,0.27l-3.41 -11.98 6.21 0c0.96,5.14 1.51,8.58 1.65,10.35 0.39,-2.79 1.01,-6.24 1.89,-10.35l6.2 0zm-22.71 9.31l0 -1.92c0,-1.36 -0.06,-2.23 -0.17,-2.63 -0.11,-0.39 -0.34,-0.59 -0.69,-0.59 -0.43,0 -0.7,0.17 -0.8,0.51 -0.1,0.33 -0.15,1.24 -0.15,2.71l0 1.92 1.81 0zm-7.86 3.03l0 -3.29c0,-2.3 0.23,-4.1 0.7,-5.43 0.47,-1.32 1.24,-2.34 2.31,-3.04 1.08,-0.71 2.3,-1.06 3.7,-1.06 1.7,0 3.1,0.42 4.2,1.27 1.11,0.85 1.89,1.98 2.33,3.38 0.45,1.4 0.67,3.37 0.67,5.91l0 2.01c-4.54,0.1 -9.18,0.19 -13.91,0.25zm-1.9 -3.96l-5.34 0 0 -1.42c0,-1.22 -0.05,-1.98 -0.16,-2.3 -0.1,-0.33 -0.37,-0.49 -0.79,-0.49 -0.33,0 -0.59,0.15 -0.76,0.45 -0.17,0.29 -0.26,0.74 -0.26,1.33 0,0.8 0.05,1.4 0.13,1.77 0.09,0.38 0.34,0.79 0.77,1.23 0.42,0.45 1.29,1.11 2.6,1.96 0.78,0.51 1.44,1 1.98,1.47 -3.16,0.03 -6.35,0.06 -9.58,0.07 -0.38,-0.47 -0.65,-0.93 -0.81,-1.36 -0.39,-1.07 -0.58,-2.35 -0.58,-3.82 0,-2.1 0.21,-3.64 0.63,-4.64 0.42,-0.99 1.13,-1.76 2.13,-2.3 1.01,-0.54 2.17,-0.81 3.5,-0.81 1.32,0 2.44,0.22 3.36,0.66 0.93,0.44 1.63,1.02 2.13,1.75 0.49,0.73 0.79,1.4 0.9,2.02 0.1,0.62 0.15,1.59 0.15,2.91l0 1.52zm-14 -8.38l-2.46 10.46 0.41 2 -1.48 0c-3.2,0 -6.38,-0.01 -9.52,-0.03l0 -18.21 6.05 0 0.02 13.46 1.9 -7.68 5.08 0zm-21.07 9.31l0 -1.92c0,-1.36 -0.06,-2.23 -0.17,-2.63 -0.11,-0.39 -0.34,-0.59 -0.69,-0.59 -0.43,0 -0.69,0.17 -0.8,0.51 -0.1,0.33 -0.15,1.24 -0.15,2.71l0 1.92 1.81 0zm-7.86 2.94l0 -3.2c0,-2.3 0.24,-4.1 0.71,-5.43 0.47,-1.32 1.24,-2.34 2.31,-3.04 1.07,-0.71 2.3,-1.06 3.69,-1.06 1.7,0 3.1,0.42 4.21,1.27 1.1,0.85 1.88,1.98 2.33,3.38 0.44,1.4 0.66,3.37 0.66,5.91l0 2.34c-4.72,-0.04 -9.36,-0.09 -13.91,-0.17zm-1.99 -18.03l0 17.99c-2.1,-0.04 -4.18,-0.08 -6.24,-0.13l0 -17.86 6.24 0zm-14.34 17.64c-0.23,-3.03 -0.47,-6.54 -0.72,-10.53 -0.44,4.31 -0.76,7.8 -0.98,10.48 -1.88,-0.06 -3.75,-0.12 -5.59,-0.18l1.74 -17.41 9.14 0 2.01 17.8c-1.89,-0.05 -3.75,-0.1 -5.6,-0.16z"/>
</svg>